<?xml version="1.0" encoding="UTF-8"?>
<svg id="Layer_1" data-name="Layer 1" xmlns="http://www.w3.org/2000/svg" viewBox="0 0 276.27 102.88">
  <defs>
    <style>
      .cls-1 {
        fill: #f0532f;
      }

      .cls-2 {
        fill: #ffcc04;
      }

      .cls-3 {
        fill: #231f20;
      }
    </style>
  </defs>
  <rect class="cls-1" x="60.11" y="5.67" width="33.44" height="33.44"/>
  <path class="cls-1" d="M76.76,0c-11.95,0-20.25,8.75-20.25,19.41s8.33,19.37,20.21,19.37,20.43-8.65,20.43-19.37S88.82,0,76.76,0Z"/>
  <path class="cls-3" d="M3.02,74.16c5.06,2.92,8.65,3.73,11.74,3.73,4.08,0,6.26-1.16,6.26-3.09-.04-2.36-2.81-2.64-9.07-4.01-4.29-.88-11.25-2.53-11.25-10.86,0-7.45,5.31-11.95,15.68-11.95,5.7,0,10.58,1.02,15.36,3.3l-2.81,8.47c-3.8-1.55-8.12-2.95-12.23-2.95-3.62,0-4.96,1.48-4.92,3.02,0,1.79,1.97,2.5,6.89,3.16,7.7,1.37,14.31,3.02,14.31,11.07s-7.31,12.76-17.05,12.76c-6.12,0-10.41-.7-15.93-3.66l3.02-9Z"/>
  <path class="cls-3" d="M111.63,39.07l7.8-.07v10.12h10.58v9.32h-10.58v12.8c0,4.54,2.25,5.7,5.17,5.7h6.08l-.07,8.89h-7.07c-8.19,0-14.94-2.21-14.94-14.48v-12.9h-5.8v-8.3l5.52-2.11,3.3-8.96Z"/>
  <path class="cls-3" d="M143.13,39.07l7.8-.07v10.12h10.58v9.32h-10.58v12.8c0,4.54,2.25,5.7,5.17,5.7h6.08l-.07,8.89h-7.07c-8.19,0-14.94-2.21-14.94-14.48v-12.9h-5.8v-8.3l5.52-2.11,3.3-8.96Z"/>
  <path class="cls-3" d="M175.44,33.55c3.94,0,6.5,2.64,6.5,5.77s-2.57,5.73-6.54,5.73-6.47-2.64-6.47-5.73,2.57-5.77,6.5-5.77Zm-5.55,15.57h10.93v36.46h-10.93V49.12Z"/>
  <path class="cls-3" d="M228.7,85.58h-10.93v-19.3c0-6.75-2.95-8.96-7.17-8.96-5.38,0-8.72,4.22-8.72,9.95v18.32h-10.86V49.12h8.75l.67,2.78c3.02-2.14,7.38-3.94,11.74-3.94,11.6,0,16.52,6.86,16.52,18.07v19.55Z"/>
  <path class="cls-3" d="M276.27,46.7v7.49h-3.09c-1.2,0-2.36,.42-3.34,.95,.95,1.79,1.48,3.76,1.48,5.84,0,7.63-6.54,13.61-17.23,13.61-2.53,0-4.78-.32-6.82-.95-.49,.81-.74,1.72-.7,2.46,0,2.04,2.5,2.21,4.22,2.21h6.68c11.6,0,16.28,5.27,16.28,11.11,0,8.86-8.79,13.46-19.93,13.46-10.2,0-19.3-3.55-19.3-11.64,0-2.46,1.83-5.27,4.22-7.49-1.69-1.48-2.57-3.52-2.57-5.73,0-3.06,1.79-6.01,4.18-8.54-2.18-2.32-3.34-5.27-3.34-8.51,0-7.52,6.47-13.85,17.12-13.85,3.8,0,7.07,.81,9.7,2.18,1.69-1.3,4.01-2.6,7.03-2.6h5.41Zm-30.38,39.41c-.21,0-.39-.04-.6-.04-.84,1.09-1.48,2.32-1.48,3.76,0,3.52,4.32,4.57,9.84,4.57s9.18-1.93,9.18-4.61-2.78-3.73-6.79-3.73l-10.16,.04Zm8.23-19.3c3.9,0,6.68-2.39,6.68-5.94s-2.78-5.87-6.68-5.87-6.54,2.39-6.54,5.87,2.78,5.94,6.54,5.94Z"/>
  <path class="cls-3" d="M45.35,67.41c0-5.26,2.03-10.06,5.52-13.57v-17.79h-10.86v36.42c0,10.09,2.57,13.15,13.57,13.15h2.29v-1.06c-6.47-3.24-10.51-9.7-10.51-17.15Z"/>
  <rect class="cls-2" y="91.53" width="56.33" height="10.18" rx="3.6" ry="3.6"/>
  <polygon class="cls-1" points="86.99 39.05 66.67 39.05 56.51 21.45 66.67 3.85 86.99 3.85 97.16 21.45 86.99 39.05"/>
</svg>